<svg width="498" height="425" viewBox="0 0 498 425" fill="none" xmlns="http://www.w3.org/2000/svg">
<mask id="path-1-inside-1" fill="white">
<path d="M14.9658 402.348H485.615L476.325 425H28.3834L14.9658 402.348Z"/>
<path d="M28.3834 351.65H479.422L498 403.426H0L28.3834 351.65Z"/>
<path fill-rule="evenodd" clip-rule="evenodd" d="M479.422 0H28.3834V351.65H479.422V0ZM90.3109 31.2817C90.3109 44.9837 79.6826 56.0914 66.572 56.0914C53.4614 56.0914 42.8332 44.9837 42.8332 31.2817C42.8332 17.5797 53.4614 6.47208 66.572 6.47208C79.6826 6.47208 90.3109 17.5797 90.3109 31.2817ZM90.3109 88.4518C90.3109 102.154 79.6826 113.261 66.572 113.261C53.4614 113.261 42.8332 102.154 42.8332 88.4518C42.8332 74.7498 53.4614 63.6421 66.572 63.6421C79.6826 63.6421 90.3109 74.7498 90.3109 88.4518ZM66.572 170.431C79.6826 170.431 90.3109 159.324 90.3109 145.622C90.3109 131.92 79.6826 120.812 66.572 120.812C53.4614 120.812 42.8332 131.92 42.8332 145.622C42.8332 159.324 53.4614 170.431 66.572 170.431ZM90.3109 202.792C90.3109 216.494 79.6826 227.602 66.572 227.602C53.4614 227.602 42.8332 216.494 42.8332 202.792C42.8332 189.09 53.4614 177.982 66.572 177.982C79.6826 177.982 90.3109 189.09 90.3109 202.792ZM66.572 284.772C79.6826 284.772 90.3109 273.664 90.3109 259.962C90.3109 246.26 79.6826 235.152 66.572 235.152C53.4614 235.152 42.8332 246.26 42.8332 259.962C42.8332 273.664 53.4614 284.772 66.572 284.772ZM90.3109 317.132C90.3109 330.834 79.6826 341.942 66.572 341.942C53.4614 341.942 42.8332 330.834 42.8332 317.132C42.8332 303.43 53.4614 292.322 66.572 292.322C79.6826 292.322 90.3109 303.43 90.3109 317.132ZM192.491 56.0914C205.602 56.0914 216.23 44.9837 216.23 31.2817C216.23 17.5797 205.602 6.47208 192.491 6.47208C179.381 6.47208 168.752 17.5797 168.752 31.2817C168.752 44.9837 179.381 56.0914 192.491 56.0914ZM216.23 88.4518C216.23 102.154 205.602 113.261 192.491 113.261C179.381 113.261 168.752 102.154 168.752 88.4518C168.752 74.7498 179.381 63.6421 192.491 63.6421C205.602 63.6421 216.23 74.7498 216.23 88.4518ZM192.491 170.431C205.602 170.431 216.23 159.324 216.23 145.622C216.23 131.92 205.602 120.812 192.491 120.812C179.381 120.812 168.752 131.92 168.752 145.622C168.752 159.324 179.381 170.431 192.491 170.431ZM216.23 202.792C216.23 216.494 205.602 227.602 192.491 227.602C179.381 227.602 168.752 216.494 168.752 202.792C168.752 189.09 179.381 177.982 192.491 177.982C205.602 177.982 216.23 189.09 216.23 202.792ZM192.491 284.772C205.602 284.772 216.23 273.664 216.23 259.962C216.23 246.26 205.602 235.152 192.491 235.152C179.381 235.152 168.752 246.26 168.752 259.962C168.752 273.664 179.381 284.772 192.491 284.772ZM216.23 317.132C216.23 330.834 205.602 341.942 192.491 341.942C179.381 341.942 168.752 330.834 168.752 317.132C168.752 303.43 179.381 292.322 192.491 292.322C205.602 292.322 216.23 303.43 216.23 317.132ZM318.41 56.0914C331.521 56.0914 342.149 44.9837 342.149 31.2817C342.149 17.5797 331.521 6.47208 318.41 6.47208C305.3 6.47208 294.672 17.5797 294.672 31.2817C294.672 44.9837 305.3 56.0914 318.41 56.0914ZM342.149 88.4518C342.149 102.154 331.521 113.261 318.41 113.261C305.3 113.261 294.672 102.154 294.672 88.4518C294.672 74.7498 305.3 63.6421 318.41 63.6421C331.521 63.6421 342.149 74.7498 342.149 88.4518ZM318.41 170.431C331.521 170.431 342.149 159.324 342.149 145.622C342.149 131.92 331.521 120.812 318.41 120.812C305.3 120.812 294.672 131.92 294.672 145.622C294.672 159.324 305.3 170.431 318.41 170.431ZM342.149 202.792C342.149 216.494 331.521 227.602 318.41 227.602C305.3 227.602 294.672 216.494 294.672 202.792C294.672 189.09 305.3 177.982 318.41 177.982C331.521 177.982 342.149 189.09 342.149 202.792ZM318.41 284.772C331.521 284.772 342.149 273.664 342.149 259.962C342.149 246.26 331.521 235.152 318.41 235.152C305.3 235.152 294.672 246.26 294.672 259.962C294.672 273.664 305.3 284.772 318.41 284.772ZM342.149 317.132C342.149 330.834 331.521 341.942 318.41 341.942C305.3 341.942 294.672 330.834 294.672 317.132C294.672 303.43 305.3 292.322 318.41 292.322C331.521 292.322 342.149 303.43 342.149 317.132ZM444.33 56.0914C457.44 56.0914 468.068 44.9837 468.068 31.2817C468.068 17.5797 457.44 6.47208 444.33 6.47208C431.219 6.47208 420.591 17.5797 420.591 31.2817C420.591 44.9837 431.219 56.0914 444.33 56.0914ZM468.068 88.4518C468.068 102.154 457.44 113.261 444.33 113.261C431.219 113.261 420.591 102.154 420.591 88.4518C420.591 74.7498 431.219 63.6421 444.33 63.6421C457.44 63.6421 468.068 74.7498 468.068 88.4518ZM444.33 170.431C457.44 170.431 468.068 159.324 468.068 145.622C468.068 131.92 457.44 120.812 444.33 120.812C431.219 120.812 420.591 131.92 420.591 145.622C420.591 159.324 431.219 170.431 444.33 170.431ZM468.068 202.792C468.068 216.494 457.44 227.602 444.33 227.602C431.219 227.602 420.591 216.494 420.591 202.792C420.591 189.09 431.219 177.982 444.33 177.982C457.44 177.982 468.068 189.09 468.068 202.792ZM444.33 284.772C457.44 284.772 468.068 273.664 468.068 259.962C468.068 246.26 457.44 235.152 444.33 235.152C431.219 235.152 420.591 246.26 420.591 259.962C420.591 273.664 431.219 284.772 444.33 284.772ZM468.068 317.132C468.068 330.834 457.44 341.942 444.33 341.942C431.219 341.942 420.591 330.834 420.591 317.132C420.591 303.43 431.219 292.322 444.33 292.322C457.44 292.322 468.068 303.43 468.068 317.132ZM129.532 56.0914C142.642 56.0914 153.27 44.9837 153.27 31.2817C153.27 17.5797 142.642 6.47208 129.532 6.47208C116.421 6.47208 105.793 17.5797 105.793 31.2817C105.793 44.9837 116.421 56.0914 129.532 56.0914ZM153.27 88.4518C153.27 102.154 142.642 113.261 129.532 113.261C116.421 113.261 105.793 102.154 105.793 88.4518C105.793 74.7498 116.421 63.6421 129.532 63.6421C142.642 63.6421 153.27 74.7498 153.27 88.4518ZM129.532 170.431C142.642 170.431 153.27 159.324 153.27 145.622C153.27 131.92 142.642 120.812 129.532 120.812C116.421 120.812 105.793 131.92 105.793 145.622C105.793 159.324 116.421 170.431 129.532 170.431ZM153.27 202.792C153.27 216.494 142.642 227.602 129.532 227.602C116.421 227.602 105.793 216.494 105.793 202.792C105.793 189.09 116.421 177.982 129.532 177.982C142.642 177.982 153.27 189.09 153.27 202.792ZM129.532 284.772C142.642 284.772 153.27 273.664 153.27 259.962C153.27 246.26 142.642 235.152 129.532 235.152C116.421 235.152 105.793 246.26 105.793 259.962C105.793 273.664 116.421 284.772 129.532 284.772ZM153.27 317.132C153.27 330.834 142.642 341.942 129.532 341.942C116.421 341.942 105.793 330.834 105.793 317.132C105.793 303.43 116.421 292.322 129.532 292.322C142.642 292.322 153.27 303.43 153.27 317.132ZM255.451 56.0914C268.561 56.0914 279.19 44.9837 279.19 31.2817C279.19 17.5797 268.561 6.47208 255.451 6.47208C242.34 6.47208 231.712 17.5797 231.712 31.2817C231.712 44.9837 242.34 56.0914 255.451 56.0914ZM279.19 88.4518C279.19 102.154 268.561 113.261 255.451 113.261C242.34 113.261 231.712 102.154 231.712 88.4518C231.712 74.7498 242.34 63.6421 255.451 63.6421C268.561 63.6421 279.19 74.7498 279.19 88.4518ZM255.451 170.431C268.561 170.431 279.19 159.324 279.19 145.622C279.19 131.92 268.561 120.812 255.451 120.812C242.34 120.812 231.712 131.92 231.712 145.622C231.712 159.324 242.34 170.431 255.451 170.431ZM279.19 202.792C279.19 216.494 268.561 227.602 255.451 227.602C242.34 227.602 231.712 216.494 231.712 202.792C231.712 189.09 242.34 177.982 255.451 177.982C268.561 177.982 279.19 189.09 279.19 202.792ZM255.451 284.772C268.561 284.772 279.19 273.664 279.19 259.962C279.19 246.26 268.561 235.152 255.451 235.152C242.34 235.152 231.712 246.26 231.712 259.962C231.712 273.664 242.34 284.772 255.451 284.772ZM279.19 317.132C279.19 330.834 268.561 341.942 255.451 341.942C242.34 341.942 231.712 330.834 231.712 317.132C231.712 303.43 242.34 292.322 255.451 292.322C268.561 292.322 279.19 303.43 279.19 317.132ZM381.37 56.0914C394.481 56.0914 405.109 44.9837 405.109 31.2817C405.109 17.5797 394.481 6.47208 381.37 6.47208C368.259 6.47208 357.631 17.5797 357.631 31.2817C357.631 44.9837 368.259 56.0914 381.37 56.0914ZM405.109 88.4518C405.109 102.154 394.481 113.261 381.37 113.261C368.259 113.261 357.631 102.154 357.631 88.4518C357.631 74.7498 368.259 63.6421 381.37 63.6421C394.481 63.6421 405.109 74.7498 405.109 88.4518ZM381.37 170.431C394.481 170.431 405.109 159.324 405.109 145.622C405.109 131.92 394.481 120.812 381.37 120.812C368.259 120.812 357.631 131.92 357.631 145.622C357.631 159.324 368.259 170.431 381.37 170.431ZM405.109 202.792C405.109 216.494 394.481 227.602 381.37 227.602C368.259 227.602 357.631 216.494 357.631 202.792C357.631 189.09 368.259 177.982 381.37 177.982C394.481 177.982 405.109 189.09 405.109 202.792ZM381.37 284.772C394.481 284.772 405.109 273.664 405.109 259.962C405.109 246.26 394.481 235.152 381.37 235.152C368.259 235.152 357.631 246.26 357.631 259.962C357.631 273.664 368.259 284.772 381.37 284.772ZM405.109 317.132C405.109 330.834 394.481 341.942 381.37 341.942C368.259 341.942 357.631 330.834 357.631 317.132C357.631 303.43 368.259 292.322 381.37 292.322C394.481 292.322 405.109 303.43 405.109 317.132Z"/>
</mask>
<path d="M14.9658 402.348H485.615L476.325 425H28.3834L14.9658 402.348Z" fill="#3471ED"/>
<path d="M28.3834 351.65H479.422L498 403.426H0L28.3834 351.65Z" fill="#3471ED"/>
<path fill-rule="evenodd" clip-rule="evenodd" d="M479.422 0H28.3834V351.65H479.422V0ZM90.3109 31.2817C90.3109 44.9837 79.6826 56.0914 66.572 56.0914C53.4614 56.0914 42.8332 44.9837 42.8332 31.2817C42.8332 17.5797 53.4614 6.47208 66.572 6.47208C79.6826 6.47208 90.3109 17.5797 90.3109 31.2817ZM90.3109 88.4518C90.3109 102.154 79.6826 113.261 66.572 113.261C53.4614 113.261 42.8332 102.154 42.8332 88.4518C42.8332 74.7498 53.4614 63.6421 66.572 63.6421C79.6826 63.6421 90.3109 74.7498 90.3109 88.4518ZM66.572 170.431C79.6826 170.431 90.3109 159.324 90.3109 145.622C90.3109 131.92 79.6826 120.812 66.572 120.812C53.4614 120.812 42.8332 131.92 42.8332 145.622C42.8332 159.324 53.4614 170.431 66.572 170.431ZM90.3109 202.792C90.3109 216.494 79.6826 227.602 66.572 227.602C53.4614 227.602 42.8332 216.494 42.8332 202.792C42.8332 189.09 53.4614 177.982 66.572 177.982C79.6826 177.982 90.3109 189.09 90.3109 202.792ZM66.572 284.772C79.6826 284.772 90.3109 273.664 90.3109 259.962C90.3109 246.26 79.6826 235.152 66.572 235.152C53.4614 235.152 42.8332 246.26 42.8332 259.962C42.8332 273.664 53.4614 284.772 66.572 284.772ZM90.3109 317.132C90.3109 330.834 79.6826 341.942 66.572 341.942C53.4614 341.942 42.8332 330.834 42.8332 317.132C42.8332 303.43 53.4614 292.322 66.572 292.322C79.6826 292.322 90.3109 303.43 90.3109 317.132ZM192.491 56.0914C205.602 56.0914 216.23 44.9837 216.23 31.2817C216.23 17.5797 205.602 6.47208 192.491 6.47208C179.381 6.47208 168.752 17.5797 168.752 31.2817C168.752 44.9837 179.381 56.0914 192.491 56.0914ZM216.23 88.4518C216.23 102.154 205.602 113.261 192.491 113.261C179.381 113.261 168.752 102.154 168.752 88.4518C168.752 74.7498 179.381 63.6421 192.491 63.6421C205.602 63.6421 216.23 74.7498 216.23 88.4518ZM192.491 170.431C205.602 170.431 216.23 159.324 216.23 145.622C216.23 131.92 205.602 120.812 192.491 120.812C179.381 120.812 168.752 131.92 168.752 145.622C168.752 159.324 179.381 170.431 192.491 170.431ZM216.23 202.792C216.23 216.494 205.602 227.602 192.491 227.602C179.381 227.602 168.752 216.494 168.752 202.792C168.752 189.09 179.381 177.982 192.491 177.982C205.602 177.982 216.23 189.09 216.23 202.792ZM192.491 284.772C205.602 284.772 216.23 273.664 216.23 259.962C216.23 246.26 205.602 235.152 192.491 235.152C179.381 235.152 168.752 246.26 168.752 259.962C168.752 273.664 179.381 284.772 192.491 284.772ZM216.23 317.132C216.23 330.834 205.602 341.942 192.491 341.942C179.381 341.942 168.752 330.834 168.752 317.132C168.752 303.43 179.381 292.322 192.491 292.322C205.602 292.322 216.23 303.43 216.23 317.132ZM318.41 56.0914C331.521 56.0914 342.149 44.9837 342.149 31.2817C342.149 17.5797 331.521 6.47208 318.41 6.47208C305.3 6.47208 294.672 17.5797 294.672 31.2817C294.672 44.9837 305.3 56.0914 318.41 56.0914ZM342.149 88.4518C342.149 102.154 331.521 113.261 318.41 113.261C305.3 113.261 294.672 102.154 294.672 88.4518C294.672 74.7498 305.3 63.6421 318.41 63.6421C331.521 63.6421 342.149 74.7498 342.149 88.4518ZM318.41 170.431C331.521 170.431 342.149 159.324 342.149 145.622C342.149 131.92 331.521 120.812 318.41 120.812C305.3 120.812 294.672 131.92 294.672 145.622C294.672 159.324 305.3 170.431 318.41 170.431ZM342.149 202.792C342.149 216.494 331.521 227.602 318.41 227.602C305.3 227.602 294.672 216.494 294.672 202.792C294.672 189.09 305.3 177.982 318.41 177.982C331.521 177.982 342.149 189.09 342.149 202.792ZM318.41 284.772C331.521 284.772 342.149 273.664 342.149 259.962C342.149 246.26 331.521 235.152 318.41 235.152C305.3 235.152 294.672 246.26 294.672 259.962C294.672 273.664 305.3 284.772 318.41 284.772ZM342.149 317.132C342.149 330.834 331.521 341.942 318.41 341.942C305.3 341.942 294.672 330.834 294.672 317.132C294.672 303.43 305.3 292.322 318.41 292.322C331.521 292.322 342.149 303.43 342.149 317.132ZM444.33 56.0914C457.44 56.0914 468.068 44.9837 468.068 31.2817C468.068 17.5797 457.44 6.47208 444.33 6.47208C431.219 6.47208 420.591 17.5797 420.591 31.2817C420.591 44.9837 431.219 56.0914 444.33 56.0914ZM468.068 88.4518C468.068 102.154 457.44 113.261 444.33 113.261C431.219 113.261 420.591 102.154 420.591 88.4518C420.591 74.7498 431.219 63.6421 444.33 63.6421C457.44 63.6421 468.068 74.7498 468.068 88.4518ZM444.33 170.431C457.44 170.431 468.068 159.324 468.068 145.622C468.068 131.92 457.44 120.812 444.33 120.812C431.219 120.812 420.591 131.92 420.591 145.622C420.591 159.324 431.219 170.431 444.33 170.431ZM468.068 202.792C468.068 216.494 457.44 227.602 444.33 227.602C431.219 227.602 420.591 216.494 420.591 202.792C420.591 189.09 431.219 177.982 444.33 177.982C457.44 177.982 468.068 189.09 468.068 202.792ZM444.33 284.772C457.44 284.772 468.068 273.664 468.068 259.962C468.068 246.26 457.44 235.152 444.33 235.152C431.219 235.152 420.591 246.26 420.591 259.962C420.591 273.664 431.219 284.772 444.33 284.772ZM468.068 317.132C468.068 330.834 457.44 341.942 444.33 341.942C431.219 341.942 420.591 330.834 420.591 317.132C420.591 303.43 431.219 292.322 444.33 292.322C457.44 292.322 468.068 303.43 468.068 317.132ZM129.532 56.0914C142.642 56.0914 153.27 44.9837 153.27 31.2817C153.27 17.5797 142.642 6.47208 129.532 6.47208C116.421 6.47208 105.793 17.5797 105.793 31.2817C105.793 44.9837 116.421 56.0914 129.532 56.0914ZM153.27 88.4518C153.27 102.154 142.642 113.261 129.532 113.261C116.421 113.261 105.793 102.154 105.793 88.4518C105.793 74.7498 116.421 63.6421 129.532 63.6421C142.642 63.6421 153.27 74.7498 153.27 88.4518ZM129.532 170.431C142.642 170.431 153.27 159.324 153.27 145.622C153.27 131.92 142.642 120.812 129.532 120.812C116.421 120.812 105.793 131.92 105.793 145.622C105.793 159.324 116.421 170.431 129.532 170.431ZM153.27 202.792C153.27 216.494 142.642 227.602 129.532 227.602C116.421 227.602 105.793 216.494 105.793 202.792C105.793 189.09 116.421 177.982 129.532 177.982C142.642 177.982 153.27 189.09 153.27 202.792ZM129.532 284.772C142.642 284.772 153.27 273.664 153.27 259.962C153.27 246.26 142.642 235.152 129.532 235.152C116.421 235.152 105.793 246.26 105.793 259.962C105.793 273.664 116.421 284.772 129.532 284.772ZM153.27 317.132C153.27 330.834 142.642 341.942 129.532 341.942C116.421 341.942 105.793 330.834 105.793 317.132C105.793 303.43 116.421 292.322 129.532 292.322C142.642 292.322 153.27 303.43 153.27 317.132ZM255.451 56.0914C268.561 56.0914 279.19 44.9837 279.19 31.2817C279.19 17.5797 268.561 6.47208 255.451 6.47208C242.34 6.47208 231.712 17.5797 231.712 31.2817C231.712 44.9837 242.34 56.0914 255.451 56.0914ZM279.19 88.4518C279.19 102.154 268.561 113.261 255.451 113.261C242.34 113.261 231.712 102.154 231.712 88.4518C231.712 74.7498 242.34 63.6421 255.451 63.6421C268.561 63.6421 279.19 74.7498 279.19 88.4518ZM255.451 170.431C268.561 170.431 279.19 159.324 279.19 145.622C279.19 131.92 268.561 120.812 255.451 120.812C242.34 120.812 231.712 131.92 231.712 145.622C231.712 159.324 242.34 170.431 255.451 170.431ZM279.19 202.792C279.19 216.494 268.561 227.602 255.451 227.602C242.34 227.602 231.712 216.494 231.712 202.792C231.712 189.09 242.34 177.982 255.451 177.982C268.561 177.982 279.19 189.09 279.19 202.792ZM255.451 284.772C268.561 284.772 279.19 273.664 279.19 259.962C279.19 246.26 268.561 235.152 255.451 235.152C242.34 235.152 231.712 246.26 231.712 259.962C231.712 273.664 242.34 284.772 255.451 284.772ZM279.19 317.132C279.19 330.834 268.561 341.942 255.451 341.942C242.34 341.942 231.712 330.834 231.712 317.132C231.712 303.43 242.34 292.322 255.451 292.322C268.561 292.322 279.19 303.43 279.19 317.132ZM381.37 56.0914C394.481 56.0914 405.109 44.9837 405.109 31.2817C405.109 17.5797 394.481 6.47208 381.37 6.47208C368.259 6.47208 357.631 17.5797 357.631 31.2817C357.631 44.9837 368.259 56.0914 381.37 56.0914ZM405.109 88.4518C405.109 102.154 394.481 113.261 381.37 113.261C368.259 113.261 357.631 102.154 357.631 88.4518C357.631 74.7498 368.259 63.6421 381.37 63.6421C394.481 63.6421 405.109 74.7498 405.109 88.4518ZM381.37 170.431C394.481 170.431 405.109 159.324 405.109 145.622C405.109 131.92 394.481 120.812 381.37 120.812C368.259 120.812 357.631 131.92 357.631 145.622C357.631 159.324 368.259 170.431 381.37 170.431ZM405.109 202.792C405.109 216.494 394.481 227.602 381.37 227.602C368.259 227.602 357.631 216.494 357.631 202.792C357.631 189.09 368.259 177.982 381.37 177.982C394.481 177.982 405.109 189.09 405.109 202.792ZM381.37 284.772C394.481 284.772 405.109 273.664 405.109 259.962C405.109 246.26 394.481 235.152 381.37 235.152C368.259 235.152 357.631 246.26 357.631 259.962C357.631 273.664 368.259 284.772 381.37 284.772ZM405.109 317.132C405.109 330.834 394.481 341.942 381.37 341.942C368.259 341.942 357.631 330.834 357.631 317.132C357.631 303.43 368.259 292.322 381.37 292.322C394.481 292.322 405.109 303.43 405.109 317.132Z" fill="#3471ED"/>
<path d="M28.3834 353.65H479.422V349.65H28.3834V353.65ZM14.9658 402.348V398.348H7.94744L11.5242 404.386L14.9658 402.348ZM485.615 402.348L489.315 403.865L491.578 398.348H485.615V402.348ZM476.325 425V429H479.008L480.026 426.518L476.325 425ZM28.3834 425L24.9419 427.039L26.1037 429H28.3834V425ZM28.3834 351.65L31.891 353.573L32.3834 352.674V351.65H28.3834ZM479.422 351.65H475.422V352.346L475.657 353.001L479.422 351.65ZM498 403.426V407.426H503.685L501.765 402.075L498 403.426ZM0 403.426L-3.50754 401.504L-6.75436 407.426H0V403.426ZM28.3834 0V-4H24.3834V0H28.3834ZM479.422 0H483.422V-4H479.422V0ZM14.9658 406.348H485.615V398.348H14.9658V406.348ZM481.914 400.83L472.624 423.482L480.026 426.518L489.315 403.865L481.914 400.83ZM476.325 421H28.3834V429H476.325V421ZM31.825 422.961L18.4074 400.309L11.5242 404.386L24.9419 427.039L31.825 422.961ZM475.657 353.001L494.235 404.777L501.765 402.075L483.187 350.299L475.657 353.001ZM498 399.426H0V407.426H498V399.426ZM3.50754 405.349L31.891 353.573L24.8759 349.727L-3.50754 401.504L3.50754 405.349ZM28.3834 4H479.422V-4H28.3834V4ZM32.3834 351.65V0H24.3834V351.65H32.3834ZM475.422 0V351.65H483.422V0H475.422ZM66.572 60.0914C82.0563 60.0914 94.3109 47.0247 94.3109 31.2817H86.3109C86.3109 42.9427 77.309 52.0914 66.572 52.0914V60.0914ZM38.8332 31.2817C38.8332 47.0247 51.0878 60.0914 66.572 60.0914V52.0914C55.835 52.0914 46.8332 42.9427 46.8332 31.2817H38.8332ZM66.572 2.47208C51.0878 2.47208 38.8332 15.5387 38.8332 31.2817H46.8332C46.8332 19.6207 55.835 10.4721 66.572 10.4721V2.47208ZM94.3109 31.2817C94.3109 15.5387 82.0563 2.47208 66.572 2.47208V10.4721C77.309 10.4721 86.3109 19.6207 86.3109 31.2817H94.3109ZM66.572 117.261C82.0563 117.261 94.3109 104.195 94.3109 88.4518H86.3109C86.3109 100.113 77.309 109.261 66.572 109.261V117.261ZM38.8332 88.4518C38.8332 104.195 51.0878 117.261 66.572 117.261V109.261C55.835 109.261 46.8332 100.113 46.8332 88.4518H38.8332ZM66.572 59.6421C51.0878 59.6421 38.8332 72.7088 38.8332 88.4518H46.8332C46.8332 76.7908 55.835 67.6421 66.572 67.6421V59.6421ZM94.3109 88.4518C94.3109 72.7088 82.0563 59.6421 66.572 59.6421V67.6421C77.309 67.6421 86.3109 76.7908 86.3109 88.4518H94.3109ZM86.3109 145.622C86.3109 157.283 77.309 166.431 66.572 166.431V174.431C82.0563 174.431 94.3109 161.365 94.3109 145.622H86.3109ZM66.572 124.812C77.309 124.812 86.3109 133.961 86.3109 145.622H94.3109C94.3109 129.879 82.0563 116.812 66.572 116.812V124.812ZM46.8332 145.622C46.8332 133.961 55.835 124.812 66.572 124.812V116.812C51.0878 116.812 38.8332 129.879 38.8332 145.622H46.8332ZM66.572 166.431C55.835 166.431 46.8332 157.283 46.8332 145.622H38.8332C38.8332 161.365 51.0878 174.431 66.572 174.431V166.431ZM66.572 231.602C82.0563 231.602 94.3109 218.535 94.3109 202.792H86.3109C86.3109 214.453 77.309 223.602 66.572 223.602V231.602ZM38.8332 202.792C38.8332 218.535 51.0878 231.602 66.572 231.602V223.602C55.835 223.602 46.8332 214.453 46.8332 202.792H38.8332ZM66.572 173.982C51.0878 173.982 38.8332 187.049 38.8332 202.792H46.8332C46.8332 191.131 55.835 181.982 66.572 181.982V173.982ZM94.3109 202.792C94.3109 187.049 82.0563 173.982 66.572 173.982V181.982C77.309 181.982 86.3109 191.131 86.3109 202.792H94.3109ZM86.3109 259.962C86.3109 271.623 77.309 280.772 66.572 280.772V288.772C82.0563 288.772 94.3109 275.705 94.3109 259.962H86.3109ZM66.572 239.152C77.309 239.152 86.3109 248.301 86.3109 259.962H94.3109C94.3109 244.219 82.0563 231.152 66.572 231.152V239.152ZM46.8332 259.962C46.8332 248.301 55.835 239.152 66.572 239.152V231.152C51.0878 231.152 38.8332 244.219 38.8332 259.962H46.8332ZM66.572 280.772C55.835 280.772 46.8332 271.623 46.8332 259.962H38.8332C38.8332 275.705 51.0878 288.772 66.572 288.772V280.772ZM66.572 345.942C82.0563 345.942 94.3109 332.875 94.3109 317.132H86.3109C86.3109 328.793 77.309 337.942 66.572 337.942V345.942ZM38.8332 317.132C38.8332 332.875 51.0878 345.942 66.572 345.942V337.942C55.835 337.942 46.8332 328.793 46.8332 317.132H38.8332ZM66.572 288.322C51.0878 288.322 38.8332 301.389 38.8332 317.132H46.8332C46.8332 305.471 55.835 296.322 66.572 296.322V288.322ZM94.3109 317.132C94.3109 301.389 82.0563 288.322 66.572 288.322V296.322C77.309 296.322 86.3109 305.471 86.3109 317.132H94.3109ZM212.23 31.2817C212.23 42.9427 203.228 52.0914 192.491 52.0914V60.0914C207.975 60.0914 220.23 47.0247 220.23 31.2817H212.23ZM192.491 10.4721C203.228 10.4721 212.23 19.6207 212.23 31.2817H220.23C220.23 15.5387 207.975 2.47208 192.491 2.47208V10.4721ZM172.752 31.2817C172.752 19.6207 181.754 10.4721 192.491 10.4721V2.47208C177.007 2.47208 164.752 15.5387 164.752 31.2817H172.752ZM192.491 52.0914C181.754 52.0914 172.752 42.9427 172.752 31.2817H164.752C164.752 47.0247 177.007 60.0914 192.491 60.0914V52.0914ZM192.491 117.261C207.975 117.261 220.23 104.195 220.23 88.4518H212.23C212.23 100.113 203.228 109.261 192.491 109.261V117.261ZM164.752 88.4518C164.752 104.195 177.007 117.261 192.491 117.261V109.261C181.754 109.261 172.752 100.113 172.752 88.4518H164.752ZM192.491 59.6421C177.007 59.6421 164.752 72.7088 164.752 88.4518H172.752C172.752 76.7908 181.754 67.6421 192.491 67.6421V59.6421ZM220.23 88.4518C220.23 72.7088 207.975 59.6421 192.491 59.6421V67.6421C203.228 67.6421 212.23 76.7908 212.23 88.4518H220.23ZM212.23 145.622C212.23 157.283 203.228 166.431 192.491 166.431V174.431C207.975 174.431 220.23 161.365 220.23 145.622H212.23ZM192.491 124.812C203.228 124.812 212.23 133.961 212.23 145.622H220.23C220.23 129.879 207.975 116.812 192.491 116.812V124.812ZM172.752 145.622C172.752 133.961 181.754 124.812 192.491 124.812V116.812C177.007 116.812 164.752 129.879 164.752 145.622H172.752ZM192.491 166.431C181.754 166.431 172.752 157.283 172.752 145.622H164.752C164.752 161.365 177.007 174.431 192.491 174.431V166.431ZM192.491 231.602C207.975 231.602 220.23 218.535 220.23 202.792H212.23C212.23 214.453 203.228 223.602 192.491 223.602V231.602ZM164.752 202.792C164.752 218.535 177.007 231.602 192.491 231.602V223.602C181.754 223.602 172.752 214.453 172.752 202.792H164.752ZM192.491 173.982C177.007 173.982 164.752 187.049 164.752 202.792H172.752C172.752 191.131 181.754 181.982 192.491 181.982V173.982ZM220.23 202.792C220.23 187.049 207.975 173.982 192.491 173.982V181.982C203.228 181.982 212.23 191.131 212.23 202.792H220.23ZM212.23 259.962C212.23 271.623 203.228 280.772 192.491 280.772V288.772C207.975 288.772 220.23 275.705 220.23 259.962H212.23ZM192.491 239.152C203.228 239.152 212.23 248.301 212.23 259.962H220.23C220.23 244.219 207.975 231.152 192.491 231.152V239.152ZM172.752 259.962C172.752 248.301 181.754 239.152 192.491 239.152V231.152C177.007 231.152 164.752 244.219 164.752 259.962H172.752ZM192.491 280.772C181.754 280.772 172.752 271.623 172.752 259.962H164.752C164.752 275.705 177.007 288.772 192.491 288.772V280.772ZM192.491 345.942C207.975 345.942 220.23 332.875 220.23 317.132H212.23C212.23 328.793 203.228 337.942 192.491 337.942V345.942ZM164.752 317.132C164.752 332.875 177.007 345.942 192.491 345.942V337.942C181.754 337.942 172.752 328.793 172.752 317.132H164.752ZM192.491 288.322C177.007 288.322 164.752 301.389 164.752 317.132H172.752C172.752 305.471 181.754 296.322 192.491 296.322V288.322ZM220.23 317.132C220.23 301.389 207.975 288.322 192.491 288.322V296.322C203.228 296.322 212.23 305.471 212.23 317.132H220.23ZM338.149 31.2817C338.149 42.9427 329.147 52.0914 318.41 52.0914V60.0914C333.895 60.0914 346.149 47.0247 346.149 31.2817H338.149ZM318.41 10.4721C329.147 10.4721 338.149 19.6207 338.149 31.2817H346.149C346.149 15.5387 333.895 2.47208 318.41 2.47208V10.4721ZM298.672 31.2817C298.672 19.6207 307.673 10.4721 318.41 10.4721V2.47208C302.926 2.47208 290.672 15.5387 290.672 31.2817H298.672ZM318.41 52.0914C307.673 52.0914 298.672 42.9427 298.672 31.2817H290.672C290.672 47.0247 302.926 60.0914 318.41 60.0914V52.0914ZM318.41 117.261C333.895 117.261 346.149 104.195 346.149 88.4518H338.149C338.149 100.113 329.147 109.261 318.41 109.261V117.261ZM290.672 88.4518C290.672 104.195 302.926 117.261 318.41 117.261V109.261C307.673 109.261 298.672 100.113 298.672 88.4518H290.672ZM318.41 59.6421C302.926 59.6421 290.672 72.7088 290.672 88.4518H298.672C298.672 76.7908 307.673 67.6421 318.41 67.6421V59.6421ZM346.149 88.4518C346.149 72.7088 333.895 59.6421 318.41 59.6421V67.6421C329.147 67.6421 338.149 76.7908 338.149 88.4518H346.149ZM338.149 145.622C338.149 157.283 329.147 166.431 318.41 166.431V174.431C333.895 174.431 346.149 161.365 346.149 145.622H338.149ZM318.41 124.812C329.147 124.812 338.149 133.961 338.149 145.622H346.149C346.149 129.879 333.895 116.812 318.41 116.812V124.812ZM298.672 145.622C298.672 133.961 307.673 124.812 318.41 124.812V116.812C302.926 116.812 290.672 129.879 290.672 145.622H298.672ZM318.41 166.431C307.673 166.431 298.672 157.283 298.672 145.622H290.672C290.672 161.365 302.926 174.431 318.41 174.431V166.431ZM318.41 231.602C333.895 231.602 346.149 218.535 346.149 202.792H338.149C338.149 214.453 329.147 223.602 318.41 223.602V231.602ZM290.672 202.792C290.672 218.535 302.926 231.602 318.41 231.602V223.602C307.673 223.602 298.672 214.453 298.672 202.792H290.672ZM318.41 173.982C302.926 173.982 290.672 187.049 290.672 202.792H298.672C298.672 191.131 307.673 181.982 318.41 181.982V173.982ZM346.149 202.792C346.149 187.049 333.895 173.982 318.41 173.982V181.982C329.147 181.982 338.149 191.131 338.149 202.792H346.149ZM338.149 259.962C338.149 271.623 329.147 280.772 318.41 280.772V288.772C333.895 288.772 346.149 275.705 346.149 259.962H338.149ZM318.41 239.152C329.147 239.152 338.149 248.301 338.149 259.962H346.149C346.149 244.219 333.895 231.152 318.41 231.152V239.152ZM298.672 259.962C298.672 248.301 307.673 239.152 318.41 239.152V231.152C302.926 231.152 290.672 244.219 290.672 259.962H298.672ZM318.41 280.772C307.673 280.772 298.672 271.623 298.672 259.962H290.672C290.672 275.705 302.926 288.772 318.41 288.772V280.772ZM318.41 345.942C333.895 345.942 346.149 332.875 346.149 317.132H338.149C338.149 328.793 329.147 337.942 318.41 337.942V345.942ZM290.672 317.132C290.672 332.875 302.926 345.942 318.41 345.942V337.942C307.673 337.942 298.672 328.793 298.672 317.132H290.672ZM318.41 288.322C302.926 288.322 290.672 301.389 290.672 317.132H298.672C298.672 305.471 307.673 296.322 318.41 296.322V288.322ZM346.149 317.132C346.149 301.389 333.895 288.322 318.41 288.322V296.322C329.147 296.322 338.149 305.471 338.149 317.132H346.149ZM464.068 31.2817C464.068 42.9427 455.067 52.0914 444.33 52.0914V60.0914C459.814 60.0914 472.068 47.0247 472.068 31.2817H464.068ZM444.33 10.4721C455.067 10.4721 464.068 19.6207 464.068 31.2817H472.068C472.068 15.5387 459.814 2.47208 444.33 2.47208V10.4721ZM424.591 31.2817C424.591 19.6207 433.593 10.4721 444.33 10.4721V2.47208C428.845 2.47208 416.591 15.5387 416.591 31.2817H424.591ZM444.33 52.0914C433.593 52.0914 424.591 42.9427 424.591 31.2817H416.591C416.591 47.0247 428.845 60.0914 444.33 60.0914V52.0914ZM444.33 117.261C459.814 117.261 472.068 104.195 472.068 88.4518H464.068C464.068 100.113 455.067 109.261 444.33 109.261V117.261ZM416.591 88.4518C416.591 104.195 428.845 117.261 444.33 117.261V109.261C433.593 109.261 424.591 100.113 424.591 88.4518H416.591ZM444.33 59.6421C428.845 59.6421 416.591 72.7088 416.591 88.4518H424.591C424.591 76.7908 433.593 67.6421 444.33 67.6421V59.6421ZM472.068 88.4518C472.068 72.7088 459.814 59.6421 444.33 59.6421V67.6421C455.067 67.6421 464.068 76.7908 464.068 88.4518H472.068ZM464.068 145.622C464.068 157.283 455.067 166.431 444.33 166.431V174.431C459.814 174.431 472.068 161.365 472.068 145.622H464.068ZM444.33 124.812C455.067 124.812 464.068 133.961 464.068 145.622H472.068C472.068 129.879 459.814 116.812 444.33 116.812V124.812ZM424.591 145.622C424.591 133.961 433.593 124.812 444.33 124.812V116.812C428.845 116.812 416.591 129.879 416.591 145.622H424.591ZM444.33 166.431C433.593 166.431 424.591 157.283 424.591 145.622H416.591C416.591 161.365 428.845 174.431 444.33 174.431V166.431ZM444.33 231.602C459.814 231.602 472.068 218.535 472.068 202.792H464.068C464.068 214.453 455.067 223.602 444.33 223.602V231.602ZM416.591 202.792C416.591 218.535 428.845 231.602 444.33 231.602V223.602C433.593 223.602 424.591 214.453 424.591 202.792H416.591ZM444.33 173.982C428.845 173.982 416.591 187.049 416.591 202.792H424.591C424.591 191.131 433.593 181.982 444.33 181.982V173.982ZM472.068 202.792C472.068 187.049 459.814 173.982 444.33 173.982V181.982C455.067 181.982 464.068 191.131 464.068 202.792H472.068ZM464.068 259.962C464.068 271.623 455.067 280.772 444.33 280.772V288.772C459.814 288.772 472.068 275.705 472.068 259.962H464.068ZM444.33 239.152C455.067 239.152 464.068 248.301 464.068 259.962H472.068C472.068 244.219 459.814 231.152 444.33 231.152V239.152ZM424.591 259.962C424.591 248.301 433.593 239.152 444.33 239.152V231.152C428.845 231.152 416.591 244.219 416.591 259.962H424.591ZM444.33 280.772C433.593 280.772 424.591 271.623 424.591 259.962H416.591C416.591 275.705 428.845 288.772 444.33 288.772V280.772ZM444.33 345.942C459.814 345.942 472.068 332.875 472.068 317.132H464.068C464.068 328.793 455.067 337.942 444.33 337.942V345.942ZM416.591 317.132C416.591 332.875 428.845 345.942 444.33 345.942V337.942C433.593 337.942 424.591 328.793 424.591 317.132H416.591ZM444.33 288.322C428.845 288.322 416.591 301.389 416.591 317.132H424.591C424.591 305.471 433.593 296.322 444.33 296.322V288.322ZM472.068 317.132C472.068 301.389 459.814 288.322 444.33 288.322V296.322C455.067 296.322 464.068 305.471 464.068 317.132H472.068ZM149.27 31.2817C149.27 42.9427 140.269 52.0914 129.532 52.0914V60.0914C145.016 60.0914 157.27 47.0247 157.27 31.2817H149.27ZM129.532 10.4721C140.269 10.4721 149.27 19.6207 149.27 31.2817H157.27C157.27 15.5387 145.016 2.47208 129.532 2.47208V10.4721ZM109.793 31.2817C109.793 19.6207 118.795 10.4721 129.532 10.4721V2.47208C114.047 2.47208 101.793 15.5387 101.793 31.2817H109.793ZM129.532 52.0914C118.795 52.0914 109.793 42.9427 109.793 31.2817H101.793C101.793 47.0247 114.047 60.0914 129.532 60.0914V52.0914ZM129.532 117.261C145.016 117.261 157.27 104.195 157.27 88.4518H149.27C149.27 100.113 140.269 109.261 129.532 109.261V117.261ZM101.793 88.4518C101.793 104.195 114.047 117.261 129.532 117.261V109.261C118.795 109.261 109.793 100.113 109.793 88.4518H101.793ZM129.532 59.6421C114.047 59.6421 101.793 72.7088 101.793 88.4518H109.793C109.793 76.7908 118.795 67.6421 129.532 67.6421V59.6421ZM157.27 88.4518C157.27 72.7088 145.016 59.6421 129.532 59.6421V67.6421C140.269 67.6421 149.27 76.7908 149.27 88.4518H157.27ZM149.27 145.622C149.27 157.283 140.269 166.431 129.532 166.431V174.431C145.016 174.431 157.27 161.365 157.27 145.622H149.27ZM129.532 124.812C140.269 124.812 149.27 133.961 149.27 145.622H157.27C157.27 129.879 145.016 116.812 129.532 116.812V124.812ZM109.793 145.622C109.793 133.961 118.795 124.812 129.532 124.812V116.812C114.047 116.812 101.793 129.879 101.793 145.622H109.793ZM129.532 166.431C118.795 166.431 109.793 157.283 109.793 145.622H101.793C101.793 161.365 114.047 174.431 129.532 174.431V166.431ZM129.532 231.602C145.016 231.602 157.27 218.535 157.27 202.792H149.27C149.27 214.453 140.269 223.602 129.532 223.602V231.602ZM101.793 202.792C101.793 218.535 114.047 231.602 129.532 231.602V223.602C118.795 223.602 109.793 214.453 109.793 202.792H101.793ZM129.532 173.982C114.047 173.982 101.793 187.049 101.793 202.792H109.793C109.793 191.131 118.795 181.982 129.532 181.982V173.982ZM157.27 202.792C157.27 187.049 145.016 173.982 129.532 173.982V181.982C140.269 181.982 149.27 191.131 149.27 202.792H157.27ZM149.27 259.962C149.27 271.623 140.269 280.772 129.532 280.772V288.772C145.016 288.772 157.27 275.705 157.27 259.962H149.27ZM129.532 239.152C140.269 239.152 149.27 248.301 149.27 259.962H157.27C157.27 244.219 145.016 231.152 129.532 231.152V239.152ZM109.793 259.962C109.793 248.301 118.795 239.152 129.532 239.152V231.152C114.047 231.152 101.793 244.219 101.793 259.962H109.793ZM129.532 280.772C118.795 280.772 109.793 271.623 109.793 259.962H101.793C101.793 275.705 114.047 288.772 129.532 288.772V280.772ZM129.532 345.942C145.016 345.942 157.27 332.875 157.27 317.132H149.27C149.27 328.793 140.269 337.942 129.532 337.942V345.942ZM101.793 317.132C101.793 332.875 114.047 345.942 129.532 345.942V337.942C118.795 337.942 109.793 328.793 109.793 317.132H101.793ZM129.532 288.322C114.047 288.322 101.793 301.389 101.793 317.132H109.793C109.793 305.471 118.795 296.322 129.532 296.322V288.322ZM157.27 317.132C157.27 301.389 145.016 288.322 129.532 288.322V296.322C140.269 296.322 149.27 305.471 149.27 317.132H157.27ZM275.19 31.2817C275.19 42.9427 266.188 52.0914 255.451 52.0914V60.0914C270.935 60.0914 283.19 47.0247 283.19 31.2817H275.19ZM255.451 10.4721C266.188 10.4721 275.19 19.6207 275.19 31.2817H283.19C283.19 15.5387 270.935 2.47208 255.451 2.47208V10.4721ZM235.712 31.2817C235.712 19.6207 244.714 10.4721 255.451 10.4721V2.47208C239.967 2.47208 227.712 15.5387 227.712 31.2817H235.712ZM255.451 52.0914C244.714 52.0914 235.712 42.9427 235.712 31.2817H227.712C227.712 47.0247 239.967 60.0914 255.451 60.0914V52.0914ZM255.451 117.261C270.935 117.261 283.19 104.195 283.19 88.4518H275.19C275.19 100.113 266.188 109.261 255.451 109.261V117.261ZM227.712 88.4518C227.712 104.195 239.967 117.261 255.451 117.261V109.261C244.714 109.261 235.712 100.113 235.712 88.4518H227.712ZM255.451 59.6421C239.967 59.6421 227.712 72.7088 227.712 88.4518H235.712C235.712 76.7908 244.714 67.6421 255.451 67.6421V59.6421ZM283.19 88.4518C283.19 72.7088 270.935 59.6421 255.451 59.6421V67.6421C266.188 67.6421 275.19 76.7908 275.19 88.4518H283.19ZM275.19 145.622C275.19 157.283 266.188 166.431 255.451 166.431V174.431C270.935 174.431 283.19 161.365 283.19 145.622H275.19ZM255.451 124.812C266.188 124.812 275.19 133.961 275.19 145.622H283.19C283.19 129.879 270.935 116.812 255.451 116.812V124.812ZM235.712 145.622C235.712 133.961 244.714 124.812 255.451 124.812V116.812C239.967 116.812 227.712 129.879 227.712 145.622H235.712ZM255.451 166.431C244.714 166.431 235.712 157.283 235.712 145.622H227.712C227.712 161.365 239.967 174.431 255.451 174.431V166.431ZM255.451 231.602C270.935 231.602 283.19 218.535 283.19 202.792H275.19C275.19 214.453 266.188 223.602 255.451 223.602V231.602ZM227.712 202.792C227.712 218.535 239.967 231.602 255.451 231.602V223.602C244.714 223.602 235.712 214.453 235.712 202.792H227.712ZM255.451 173.982C239.967 173.982 227.712 187.049 227.712 202.792H235.712C235.712 191.131 244.714 181.982 255.451 181.982V173.982ZM283.19 202.792C283.19 187.049 270.935 173.982 255.451 173.982V181.982C266.188 181.982 275.19 191.131 275.19 202.792H283.19ZM275.19 259.962C275.19 271.623 266.188 280.772 255.451 280.772V288.772C270.935 288.772 283.19 275.705 283.19 259.962H275.19ZM255.451 239.152C266.188 239.152 275.19 248.301 275.19 259.962H283.19C283.19 244.219 270.935 231.152 255.451 231.152V239.152ZM235.712 259.962C235.712 248.301 244.714 239.152 255.451 239.152V231.152C239.967 231.152 227.712 244.219 227.712 259.962H235.712ZM255.451 280.772C244.714 280.772 235.712 271.623 235.712 259.962H227.712C227.712 275.705 239.967 288.772 255.451 288.772V280.772ZM255.451 345.942C270.935 345.942 283.19 332.875 283.19 317.132H275.19C275.19 328.793 266.188 337.942 255.451 337.942V345.942ZM227.712 317.132C227.712 332.875 239.967 345.942 255.451 345.942V337.942C244.714 337.942 235.712 328.793 235.712 317.132H227.712ZM255.451 288.322C239.967 288.322 227.712 301.389 227.712 317.132H235.712C235.712 305.471 244.714 296.322 255.451 296.322V288.322ZM283.19 317.132C283.19 301.389 270.935 288.322 255.451 288.322V296.322C266.188 296.322 275.19 305.471 275.19 317.132H283.19ZM401.109 31.2817C401.109 42.9427 392.107 52.0914 381.37 52.0914V60.0914C396.854 60.0914 409.109 47.0247 409.109 31.2817H401.109ZM381.37 10.4721C392.107 10.4721 401.109 19.6207 401.109 31.2817H409.109C409.109 15.5387 396.854 2.47208 381.37 2.47208V10.4721ZM361.631 31.2817C361.631 19.6207 370.633 10.4721 381.37 10.4721V2.47208C365.886 2.47208 353.631 15.5387 353.631 31.2817H361.631ZM381.37 52.0914C370.633 52.0914 361.631 42.9427 361.631 31.2817H353.631C353.631 47.0247 365.886 60.0914 381.37 60.0914V52.0914ZM381.37 117.261C396.854 117.261 409.109 104.195 409.109 88.4518H401.109C401.109 100.113 392.107 109.261 381.37 109.261V117.261ZM353.631 88.4518C353.631 104.195 365.886 117.261 381.37 117.261V109.261C370.633 109.261 361.631 100.113 361.631 88.4518H353.631ZM381.37 59.6421C365.886 59.6421 353.631 72.7088 353.631 88.4518H361.631C361.631 76.7908 370.633 67.6421 381.37 67.6421V59.6421ZM409.109 88.4518C409.109 72.7088 396.854 59.6421 381.37 59.6421V67.6421C392.107 67.6421 401.109 76.7908 401.109 88.4518H409.109ZM401.109 145.622C401.109 157.283 392.107 166.431 381.37 166.431V174.431C396.854 174.431 409.109 161.365 409.109 145.622H401.109ZM381.37 124.812C392.107 124.812 401.109 133.961 401.109 145.622H409.109C409.109 129.879 396.854 116.812 381.37 116.812V124.812ZM361.631 145.622C361.631 133.961 370.633 124.812 381.37 124.812V116.812C365.886 116.812 353.631 129.879 353.631 145.622H361.631ZM381.37 166.431C370.633 166.431 361.631 157.283 361.631 145.622H353.631C353.631 161.365 365.886 174.431 381.37 174.431V166.431ZM381.37 231.602C396.854 231.602 409.109 218.535 409.109 202.792H401.109C401.109 214.453 392.107 223.602 381.37 223.602V231.602ZM353.631 202.792C353.631 218.535 365.886 231.602 381.37 231.602V223.602C370.633 223.602 361.631 214.453 361.631 202.792H353.631ZM381.37 173.982C365.886 173.982 353.631 187.049 353.631 202.792H361.631C361.631 191.131 370.633 181.982 381.37 181.982V173.982ZM409.109 202.792C409.109 187.049 396.854 173.982 381.37 173.982V181.982C392.107 181.982 401.109 191.131 401.109 202.792H409.109ZM401.109 259.962C401.109 271.623 392.107 280.772 381.37 280.772V288.772C396.854 288.772 409.109 275.705 409.109 259.962H401.109ZM381.37 239.152C392.107 239.152 401.109 248.301 401.109 259.962H409.109C409.109 244.219 396.854 231.152 381.37 231.152V239.152ZM361.631 259.962C361.631 248.301 370.633 239.152 381.37 239.152V231.152C365.886 231.152 353.631 244.219 353.631 259.962H361.631ZM381.37 280.772C370.633 280.772 361.631 271.623 361.631 259.962H353.631C353.631 275.705 365.886 288.772 381.37 288.772V280.772ZM381.37 345.942C396.854 345.942 409.109 332.875 409.109 317.132H401.109C401.109 328.793 392.107 337.942 381.37 337.942V345.942ZM353.631 317.132C353.631 332.875 365.886 345.942 381.37 345.942V337.942C370.633 337.942 361.631 328.793 361.631 317.132H353.631ZM381.37 288.322C365.886 288.322 353.631 301.389 353.631 317.132H361.631C361.631 305.471 370.633 296.322 381.37 296.322V288.322ZM409.109 317.132C409.109 301.389 396.854 288.322 381.37 288.322V296.322C392.107 296.322 401.109 305.471 401.109 317.132H409.109Z" fill="#2B53A5" mask="url(#path-1-inside-1)"/>
</svg>
